<?xml version="1.0" encoding="UTF-8"?>
<svg width="138px" height="162px" viewBox="0 0 138 162" version="1.1" xmlns="http://www.w3.org/2000/svg" xmlns:xlink="http://www.w3.org/1999/xlink">
    <!-- Generator: Sketch 48.1 (47250) - http://www.bohemiancoding.com/sketch -->
    <title>Shape</title>
    <desc>Created with Sketch.</desc>
    <defs></defs>
    <g id="Page-1" stroke="none" stroke-width="1" fill="none" fill-rule="evenodd">
        <g id="apple_logo_black" transform="translate(0.000000, -1.000000)" fill="#FFFFFF" fill-rule="nonzero">
            <path d="M134.37,127.25 C131.92,132.91 129.02,138.12 125.66,142.91 C121.08,149.44 117.33,153.96 114.44,156.47 C109.96,160.59 105.16,162.7 100.02,162.82 C96.33,162.82 91.88,161.77 86.7,159.64 C81.503,157.52 76.727,156.47 72.36,156.47 C67.78,156.47 62.868,157.52 57.614,159.64 C52.352,161.77 48.114,162.88 44.872,162.99 C39.942,163.2 35.03,161.03 30.126,156.47 C26.996,153.74 23.081,149.06 18.391,142.43 C13.361,135.35 9.223,127.14 5.981,117.78 C2.511,107.67 0.771,97.88 0.771,88.402 C0.771,77.545 3.117,68.182 7.816,60.334 C11.508,54.03 16.42,49.06 22.57,45.41 C28.72,41.76 35.363,39.9 42.518,39.78 C46.433,39.78 51.568,40.99 57.948,43.37 C64.308,45.76 68.394,46.97 70.185,46.97 C71.525,46.97 76.062,45.554 83.755,42.73 C91.03,40.113 97.17,39.03 102.2,39.456 C115.83,40.556 126.07,45.929 132.88,55.609 C120.69,62.994 114.66,73.339 114.78,86.609 C114.89,96.947 118.64,105.549 126.01,112.379 C129.35,115.549 133.08,117.999 137.23,119.739 C136.33,122.349 135.38,124.849 134.37,127.249 L134.37,127.25 Z M103.11,4.24 C103.11,12.342 100.15,19.907 94.25,26.91 C87.13,35.233 78.518,40.043 69.18,39.284 C69.06,38.312 68.99,37.289 68.99,36.214 C68.99,28.436 72.377,20.112 78.39,13.306 C81.392,9.86 85.21,6.996 89.84,4.709 C94.46,2.456 98.83,1.211 102.94,0.999 C103.06,2.081 103.11,3.164 103.11,4.239 L103.11,4.24 Z" id="Shape"></path>
        </g>
    </g>
</svg>