<?xml version="1.0" encoding="UTF-8"?>
<svg width="972px" height="264px" viewBox="0 0 972 264" version="1.1" xmlns="http://www.w3.org/2000/svg" xmlns:xlink="http://www.w3.org/1999/xlink">
    <!-- Generator: Sketch 48.1 (47250) - http://www.bohemiancoding.com/sketch -->
    <title>surface_logo_text</title>
    <desc>Created with Sketch.</desc>
    <defs></defs>
    <g id="Page-1" stroke="none" stroke-width="1" fill="none" fill-rule="evenodd">
        <g id="surface_logo_text" transform="translate(8.000000, 13.000000)">
            <g id="Group" stroke-linecap="round" stroke-linejoin="round" stroke="#FFFFFF">
                <polygon id="Shape" stroke-width="25" points="267 119 95 238 95 0"></polygon>
                <g transform="translate(0.000000, 86.000000)" id="Shape" stroke-width="16">
                    <path d="M34.5,0 L141.5,0 M34.5,70 L141.5,70 M0,36 L168,36"></path>
                </g>
            </g>
            <path d="M348.505,171.362 C340.875,171.362 334.17,170.59 328.388,169.046 C322.606,167.502 318.186,165.61 315.128,163.37 C312.071,161.13 310.542,159.01 310.542,157.013 C310.542,155.438 311.132,153.501 312.312,151.2 C313.494,148.9 314.902,146.917 316.536,145.25 C318.171,143.586 319.533,142.754 320.623,142.754 C321.289,142.754 322.713,143.329 324.893,144.479 C328.161,146.174 331.263,147.536 334.201,148.565 C337.138,149.595 340.514,150.109 344.328,150.109 C348.566,150.109 352.154,149.277 355.09,147.612 C358.026,145.947 359.494,143.025 359.494,138.848 C359.494,136.425 358.737,134.336 357.224,132.58 C355.71,130.824 353.772,129.34 351.411,128.13 C349.051,126.92 345.841,125.496 341.785,123.86 L334.61,120.773 C330.25,118.653 326.51,116.323 323.393,113.78 C320.275,111.237 317.733,107.877 315.763,103.7 C313.796,99.52 312.813,94.405 312.813,88.35 C312.813,80.964 314.629,74.818 318.263,69.914 C321.895,65.01 326.617,61.407 332.43,59.106 C338.242,56.806 344.478,55.656 351.14,55.656 C356.588,55.656 361.522,56.216 365.942,57.336 C370.362,58.456 373.829,59.893 376.342,61.649 C378.854,63.406 380.11,65.162 380.11,66.919 C380.11,68.371 379.64,70.233 378.703,72.503 C377.763,74.773 376.599,76.757 375.206,78.453 C373.813,80.147 372.512,80.995 371.301,80.995 C370.757,80.995 369.788,80.692 368.396,80.087 C366.156,79.179 363.9,78.437 361.629,77.862 C359.359,77.287 356.589,76.999 353.319,76.999 C347.689,76.999 343.783,77.892 341.604,79.679 C339.424,81.464 338.334,83.569 338.334,85.989 C338.334,88.775 339.076,91.106 340.559,92.983 C342.043,94.86 343.919,96.403 346.189,97.615 C348.459,98.825 351.624,100.219 355.681,101.793 C361.796,104.396 366.791,106.863 370.666,109.195 C374.541,111.525 377.886,114.871 380.702,119.23 C383.518,123.59 384.926,129.16 384.926,135.942 C384.926,144.237 383.186,151.034 379.704,156.332 C376.222,161.629 371.742,165.459 366.262,167.82 C360.782,170.182 354.864,171.362 348.507,171.362 L348.505,171.362 Z M445.229,171.362 C435.419,171.362 427.019,169.818 420.025,166.73 C413.032,163.643 407.688,159.177 403.995,153.334 C400.302,147.492 398.455,140.454 398.455,132.219 L398.455,61.832 C398.455,60.076 399.242,58.759 400.815,57.882 C402.391,57.002 404.843,56.564 408.173,56.564 L413.623,56.564 C416.953,56.564 419.389,57.004 420.933,57.881 C422.477,58.759 423.249,60.076 423.249,61.831 L423.249,130.583 C423.249,134.337 424.172,137.697 426.019,140.663 C427.866,143.631 430.454,145.947 433.784,147.613 C437.114,149.277 440.929,150.109 445.228,150.109 C449.525,150.109 453.355,149.277 456.715,147.612 C460.075,145.947 462.695,143.632 464.571,140.664 C466.448,137.697 467.387,134.337 467.387,130.584 L467.387,61.832 C467.387,60.076 468.157,58.759 469.702,57.882 C471.246,57.002 473.682,56.564 477.012,56.564 L482.372,56.564 C485.702,56.564 488.138,57.004 489.682,57.881 C491.226,58.759 491.998,60.076 491.998,61.831 L491.998,132.218 C491.998,140.451 490.152,147.49 486.458,153.332 C482.766,159.175 477.422,163.642 470.428,166.728 C463.436,169.816 455.035,171.36 445.228,171.36 L445.229,171.362 Z M523.605,170.272 C517.127,170.272 513.888,168.577 513.888,165.187 L513.888,63.377 C513.888,61.137 514.401,59.517 515.431,58.517 C516.461,57.519 518.095,57.02 520.335,57.02 L551.85,57.02 C578.61,57.02 591.992,67.1 591.992,87.263 C591.992,93.378 590.282,98.645 586.862,103.065 C583.44,107.485 578.852,110.785 573.102,112.965 L573.102,113.601 C575.1,114.449 577.204,116.266 579.414,119.051 C581.624,121.836 583.394,124.984 584.727,128.496 L598.984,164.006 C599.469,165.46 599.711,166.489 599.711,167.096 C599.711,169.214 596.501,170.273 590.084,170.273 L583.454,170.273 C578.064,170.273 574.947,169.153 574.1,166.913 L561.294,135.398 C560.084,132.978 558.917,131.1 557.797,129.768 C556.677,128.436 555.117,127.421 553.12,126.725 C551.122,126.029 548.428,125.681 545.037,125.681 L538.77,125.681 L538.77,165.188 C538.77,168.578 535.53,170.273 529.053,170.273 L523.603,170.273 L523.605,170.272 Z M554.03,104.246 C556.21,104.246 558.27,103.626 560.207,102.384 C562.145,101.144 563.687,99.464 564.839,97.344 C565.989,95.224 566.563,92.894 566.563,90.351 C566.563,86.598 565.337,83.616 562.885,81.406 C560.433,79.196 557.118,78.091 552.94,78.091 L538.773,78.091 L538.773,104.247 L554.031,104.247 L554.03,104.246 Z M622.146,170.272 C615.668,170.272 612.429,168.577 612.429,165.187 L612.429,63.377 C612.429,61.137 612.942,59.517 613.972,58.517 C615.002,57.519 616.636,57.02 618.876,57.02 L672.823,57.02 C674.519,57.02 675.745,57.655 676.501,58.927 C677.258,60.197 677.637,62.257 677.637,65.103 L677.637,70.007 C677.637,72.853 677.257,74.911 676.501,76.183 C675.745,77.453 674.519,78.09 672.823,78.09 L637.313,78.09 L637.313,101.703 L671.643,101.703 C673.338,101.703 674.579,102.339 675.366,103.61 C676.153,104.882 676.546,106.91 676.546,109.695 L676.546,114.69 C676.546,117.536 676.153,119.61 675.366,120.912 C674.579,122.212 673.338,122.864 671.643,122.864 L637.313,122.864 L637.313,165.187 C637.313,168.577 634.073,170.272 627.595,170.272 L622.145,170.272 L622.146,170.272 Z M692.351,170.272 C685.751,170.272 682.451,169.092 682.451,166.73 C682.451,166.064 682.664,165.096 683.088,163.824 L718.688,60.017 C719.538,57.717 722.595,56.565 727.862,56.565 L736.219,56.565 C741.486,56.565 744.544,57.715 745.392,60.017 L780.992,163.824 C781.296,165.034 781.447,166.004 781.447,166.73 C781.447,167.94 780.797,168.834 779.495,169.41 C778.193,169.985 776.149,170.272 773.365,170.272 L766.28,170.272 C763.737,170.272 761.694,170.015 760.15,169.5 C758.606,168.986 757.652,168.123 757.29,166.912 L750.75,147.204 L712.696,147.204 L706.156,166.912 C705.491,169.152 703.009,170.272 698.71,170.272 L692.353,170.272 L692.351,170.272 Z M743.847,125.862 L734.674,97.162 C734.129,95.709 733.66,94.044 733.266,92.167 C732.873,90.29 732.524,88.504 732.222,86.809 L731.587,86.809 L731.224,88.806 C730.618,92.378 729.922,95.163 729.134,97.161 L719.599,125.861 L743.849,125.861 L743.847,125.862 Z M841.842,171.362 C823.679,171.362 810.282,166.64 801.655,157.194 C793.027,147.749 788.713,133.067 788.713,113.146 C788.713,74.82 806.696,55.656 842.661,55.656 C847.566,55.656 852.651,56.142 857.919,57.11 C863.187,58.08 867.591,59.426 871.133,61.152 C874.675,62.877 876.446,64.8 876.446,66.919 C876.446,68.432 875.841,70.415 874.63,72.867 C873.42,75.319 871.98,77.483 870.316,79.36 C868.651,81.238 867.183,82.177 865.911,82.177 C865.608,82.177 864.791,81.874 863.459,81.269 C860.553,80.057 857.509,79.042 854.332,78.225 C851.152,77.408 847.11,76.999 842.206,76.999 C832.7,76.999 825.662,80.011 821.09,86.036 C816.52,92.06 814.233,101.156 814.233,113.326 C814.233,125.496 816.535,134.67 821.137,140.846 C825.737,147.021 832.641,150.109 841.844,150.109 C846.628,150.109 850.791,149.625 854.334,148.656 C857.874,147.686 861.341,146.446 864.732,144.933 C864.912,144.873 865.458,144.645 866.366,144.251 C867.276,143.858 867.941,143.661 868.364,143.661 C869.939,143.661 871.452,144.584 872.904,146.431 C874.358,148.278 875.539,150.367 876.447,152.698 C877.357,155.028 877.81,156.708 877.81,157.738 C877.81,160.704 875.827,163.218 871.86,165.275 C867.895,167.335 863.112,168.863 857.51,169.862 C851.91,170.862 846.69,171.36 841.845,171.36 L841.842,171.362 Z M899.06,170 C896.82,170 895.185,169.485 894.155,168.456 C893.125,167.426 892.611,165.792 892.611,163.552 L892.611,63.377 C892.611,61.137 893.125,59.517 894.154,58.517 C895.184,57.519 896.818,57.02 899.059,57.02 L958.183,57.02 C959.878,57.02 961.103,57.655 961.861,58.927 C962.618,60.197 962.996,62.257 962.996,65.103 L962.996,70.007 C962.996,72.853 962.618,74.911 961.861,76.183 C961.104,77.453 959.878,78.09 958.183,78.09 L917.495,78.09 L917.495,101.52 L953.823,101.52 C955.519,101.52 956.745,102.157 957.501,103.43 C958.258,104.7 958.637,106.76 958.637,109.604 L958.637,114.6 C958.637,117.445 958.257,119.504 957.501,120.775 C956.745,122.047 955.519,122.683 953.823,122.683 L917.495,122.683 L917.495,148.839 L958.273,148.839 C959.969,148.839 961.195,149.474 961.953,150.745 C962.709,152.017 963.087,154.045 963.087,156.83 L963.087,161.917 C963.087,164.763 962.709,166.821 961.952,168.093 C961.196,169.363 959.97,170 958.274,170 L899.06,170 Z" id="Shape" fill="#FFFFFF" fill-rule="nonzero"></path>
        </g>
    </g>
</svg>