<?xml version="1.0" encoding="UTF-8"?>
<svg width="1413px" height="287px" viewBox="0 0 1413 287" version="1.1" xmlns="http://www.w3.org/2000/svg" xmlns:xlink="http://www.w3.org/1999/xlink">
    <!-- Generator: Sketch 48.1 (47250) - http://www.bohemiancoding.com/sketch -->
    <title>logo2</title>
    <desc>Created with Sketch.</desc>
    <defs></defs>
    <g id="Page-1" stroke="none" stroke-width="1" fill="none" fill-rule="evenodd">
        <g id="logo2" fill="#000000" fill-rule="nonzero">
            <g id="Group">
                <polygon id="XMLID_2_" points="80.9 181.4 0 2.6 39.5 2.6 86.2 104.1 132.7 2.6 172.2 2.6 91.6 181.4"></polygon>
                <polygon id="XMLID_16_" points="204.7 2.6 279.1 181.4 239.6 181.4 198.6 82.7 155.2 181.4 115.1 181.4 194.2 2.6"></polygon>
                <path d="M347,2.6 C376.6,2.6 400.6,26.8 400.6,56.4 C400.6,86 376.6,110 347,110 L324.8,110 L324.8,181.4 L289.1,181.4 L289.1,2.6 L347,2.6 Z M347,74.2 C356.7,74.2 364.9,66.3 364.9,56.3 C364.9,46.3 356.7,38.2 347,38.2 L324.8,38.2 L324.8,74.2 L347,74.2 Z" id="XMLID_24_"></path>
                <polygon id="XMLID_35_" points="414.6 181.1 414.6 2.6 450.3 2.6 450.3 181.2 414.6 181.2"></polygon>
                <polygon id="XMLID_41_" points="601.5 181.4 501 77 501 181.3 465.3 181.3 465.3 2.6 476.5 2.6 575.2 102.6 575.2 2.6 611 2.6 611 181.4"></polygon>
                <path d="M805,71.2 L805,89.3 C805,145.4 764.2,184.5 716.2,184.5 L715.9,184.5 C664.6,184 623.8,142.9 624.3,91.6 C624.9,40.8 666.2,0 717,0 L717.8,0 C739.5,0.3 759.1,7.9 774.7,20.4 L748.9,45.7 C739.7,39.3 729,36 717.5,35.8 L717,35.8 C701.9,35.8 687.7,41.7 676.9,52.4 C666.2,62.9 660.1,77.1 660.1,92.2 C659.8,107.3 665.7,121.8 676.2,132.5 C686.9,143.5 701.2,149.6 716.3,149.6 C742.3,149.6 764.5,131 771.2,107 L730.9,107 L730.9,71.2 L805,71.2 Z" id="XMLID_47_"></path>
                <path d="M874.6,2.6 C886.6,2.6 898.3,4.9 909.3,9.5 C920,14.1 929.5,20.5 937.6,28.6 C946,37 952.4,46.5 956.7,57.2 C961.5,68.2 963.8,79.9 963.8,91.9 C963.8,104.1 961.5,115.9 956.7,126.9 C952.4,137.6 946,147.1 937.6,155.2 C929.4,163.4 920,170 909.3,174.3 C898.3,179.1 886.6,181.4 874.6,181.4 L838.6,181.4 L838.6,181.1 L824.1,181.1 L824.1,2.6 L874.6,2.6 Z M874.6,145.7 C904.2,145.7 928.2,121.5 928.2,91.9 C928.2,62.3 904.2,38.3 874.6,38.3 L859.8,38.3 L859.8,145.7 L874.6,145.7 Z" id="XMLID_50_"></path>
                <polygon id="XMLID_62_" points="1049.7 2.6 1134.1 181.4 1094.6 181.4 1043.6 72.7 988.2 181.4 948.1 181.4 1039.2 2.6"></polygon>
                <polygon id="XMLID_64_" points="1146.3 181.1 1146.3 2.6 1182 2.6 1182 181.2 1146.3 181.2"></polygon>
                <polygon id="XMLID_71_" points="1232.6 145.7 1299.2 145.7 1299.2 181.2 1196.9 181.2 1196.9 2.6 1232.6 2.6"></polygon>
                <polygon id="XMLID_83_" points="1412.1 2.6 1354 115.8 1354 181.4 1318.3 181.4 1318.3 115.8 1259.8 2.6 1299.3 2.6 1336 70 1372.5 2.6"></polygon>
            </g>
            <g id="Group" transform="translate(656.000000, 238.000000)">
                <polygon id="XMLID_25_" points="35.6 1 0.9 1 0.9 8.1 14.8 8.1 14.8 48 21.8 48 21.8 8.1 35.6 8.1"></polygon>
                <polygon id="XMLID_22_" points="76 48 76 1.1 69 1.1 69 20.2 47.6 20.2 47.6 1.1 40.6 1.1 40.6 48 47.6 48 47.6 27.2 69 27.2 69 48"></polygon>
                <polygon id="XMLID_21_" points="113.3 8.1 113.3 1 83 1 83 48 113.1 48 113.1 41 90 41 90 27.2 109.2 27.2 109.2 20.2 90 20.2 90 8.1"></polygon>
                <polygon id="XMLID_20_" points="175 1 161.1 31.5 147.1 1 139.3 1 160.5 48 161.6 48 182.8 1"></polygon>
                <path d="M207.6,0.1 C194.2,0.1 183.2,11 183.2,24.5 C183.2,37.9 194.1,48.9 207.6,48.9 C221.1,48.9 232,38 232,24.5 C231.9,11 221,0.1 207.6,0.1 Z M207.6,41.6 C198.2,41.6 190.5,33.9 190.5,24.5 C190.5,15.1 198.2,7.4 207.6,7.4 C217,7.4 224.7,15.1 224.7,24.5 C224.6,33.9 217,41.6 207.6,41.6 Z" id="Shape"></path>
                <polygon id="XMLID_17_" points="254.6 8.1 254.6 1 236.9 1 236.9 8.1 242.3 8.1 242.3 41 236.9 41 236.9 48 254.6 48 254.6 41 249.3 41 249.3 8.1"></polygon>
                <path d="M259.6,24.6 C259.6,38 270.5,49 284,49 C289.1,49 294.2,47.3 298.4,44.3 L293.9,39.1 C288.9,42.2 282.4,42.6 277,39.9 C271.2,37 267.8,31.3 267.8,24.6 C267.8,18.2 270.9,12.8 276.4,9.8 C281.6,7 288.1,7 293.2,9.7 L297.7,4.5 C293.6,1.8 288.8,0.3 283.9,0.3 C270.5,0.3 259.6,11.2 259.6,24.6 Z" id="XMLID_15_"></path>
                <polygon id="XMLID_14_" points="335.6 8.1 335.6 1 305.3 1 305.3 48 335.4 48 335.4 41 312.3 41 312.3 27.2 331.5 27.2 331.5 20.2 312.3 20.2 312.3 8.1"></polygon>
                <path d="M387,0.1 C373.6,0.1 362.6,11 362.6,24.5 C362.6,37.9 373.5,48.9 387,48.9 C400.4,48.9 411.4,38 411.4,24.5 C411.3,11 400.4,0.1 387,0.1 Z M387,41.6 C377.6,41.6 369.9,33.9 369.9,24.5 C369.9,15.1 377.6,7.4 387,7.4 C396.4,7.4 404.1,15.1 404.1,24.5 C404,33.9 396.4,41.6 387,41.6 Z" id="Shape"></path>
                <polygon id="XMLID_11_" points="442.8 20.2 423.6 20.2 423.6 8.1 446.9 8.1 446.9 1 416.6 1 416.6 48 423.6 48 423.6 27.2 442.8 27.2"></polygon>
                <polygon id="XMLID_10_" points="508.5 1 494.6 31.5 480.7 1 472.9 1 494.1 48 495.2 48 516.3 1"></polygon>
                <path d="M537.3,38.7 L541.6,48 L549.4,48 L527.2,1.1 L526.1,1.1 L502.2,48 L510.1,48 L514.8,38.7 L537.3,38.7 Z M526.5,15.8 L534,31.8 L518.4,31.8 L526.5,15.8 Z" id="Shape"></path>
                <path d="M581.5,14.6 C581.5,7.1 575.5,1.1 568,1.1 L553.3,1.1 L553.3,48 L560.3,48 L560.3,28.1 L568,28.1 C575.5,28.1 581.5,22 581.5,14.6 Z M560.4,8.1 L568.1,8.1 C571.7,8.1 574.6,11 574.6,14.6 C574.6,18.2 571.7,21.1 568.1,21.1 L560.4,21.1 L560.4,8.1 Z" id="Shape"></path>
                <polygon id="XMLID_4_" points="603.1 8.1 603.1 1 585.5 1 585.5 8.1 590.9 8.1 590.9 41 585.5 41 585.5 48 603.1 48 603.1 41 597.9 41 597.9 8.1"></polygon>
                <polygon id="XMLID_3_" points="645.8 48 645.8 1 638.8 1 638.8 31.1 609.2 1 608.1 1 608.1 48 615.1 48 615.1 16.7 645.3 48"></polygon>
                <path d="M698,48 L698,20.2 L679.4,20.2 L679.4,27.2 L691.4,27.2 L690.9,29.1 C690.1,32.2 688.5,34.9 686.2,37.1 C682.9,40.3 678.6,42.1 674.1,42.1 C669.3,42.1 664.9,40.2 661.6,36.9 C658.4,33.6 656.6,29.1 656.7,24.6 C656.7,20.1 658.6,15.6 661.8,12.5 C665.1,9.2 669.4,7.5 674,7.5 C677.3,7.6 680.2,8.4 682.7,9.9 L687.8,4.9 C683.8,2.1 679.1,0.6 674.2,0.5 C660.7,0.5 649.8,11.3 649.6,24.6 C649.5,31.1 652,37.2 656.5,41.8 C661,46.4 667.1,48.9 673.7,49 C676,49 682.2,48.5 688.5,43.5 L690.9,41.6 L690.9,48.2 L698,48.2 L698,48 Z" id="XMLID_1_"></path>
            </g>
        </g>
    </g>
</svg>